# xmcd
#
# Track frame offsets: 
#        150
#        12144
#        29837
#        44469
#        64557
#        80326
#        97123
#        113673
#        125606
#        135226
#        151196
#        167384
#        184045
#        204585
#
# Disc length: 2893 seconds
#
# Revision: 0
# Processed by: cddbd v1.5.2PL0 Copyright (c) Steve Scherf et al.
# Submitted via: ExactAudioCopyFreeDBPlugin 1.0
#
DISCID=ae0b4b0e
DTITLE=Bill Lake - Home Truths
DYEAR=1996
DGENRE=New Zealand: Country/Blues
TTITLE0=I Wouldn't Do That
TTITLE1=Thought I'd Seen It All
TTITLE2=The Way of the World
TTITLE3=Is This You?
TTITLE4=What Are We Fighting For?
TTITLE5=Freedom From Power
TTITLE6=It All Comes to Nothing
TTITLE7=Pariah County
TTITLE8=Why Would A Woman?
TTITLE9=That's What Friends are For
TTITLE10=Wrong Kind of Fool
TTITLE11=Home Truths
TTITLE12=Why Do We Carry This Load?
TTITLE13=Rock and Roll Dream
EXTD=
EXTT0=
EXTT1=
EXTT2=
EXTT3=
EXTT4=
EXTT5=
EXTT6=
EXTT7=
EXTT8=
EXTT9=
EXTT10=
EXTT11=
EXTT12=
EXTT13=
PLAYORDER=
